<mxfile host="Electron" modified="2023-08-02T19:29:18.977Z" agent="Mozilla/5.0 (Windows NT 10.0; Win64; x64) AppleWebKit/537.36 (KHTML, like Gecko) draw.io/21.6.5 Chrome/114.0.5735.243 Electron/25.3.1 Safari/537.36" etag="m-AK-4AV0f2hxcVWn3-j" version="21.6.5" type="device">
  <diagram name="第 1 页" id="n1tu3bs2jnX6QsAyU4Jc">
    <mxGraphModel dx="1098" dy="828" grid="1" gridSize="10" guides="1" tooltips="1" connect="1" arrows="1" fold="1" page="1" pageScale="1" pageWidth="827" pageHeight="1169" math="0" shadow="0">
      <root>
        <mxCell id="0" />
        <mxCell id="1" parent="0" />
        <mxCell id="ETT2SsbHruUbjqDq5Ute-5" style="edgeStyle=orthogonalEdgeStyle;rounded=0;orthogonalLoop=1;jettySize=auto;html=1;" edge="1" parent="1" source="ETT2SsbHruUbjqDq5Ute-1" target="ETT2SsbHruUbjqDq5Ute-2">
          <mxGeometry relative="1" as="geometry" />
        </mxCell>
        <mxCell id="ETT2SsbHruUbjqDq5Ute-8" value="偏向锁启用&lt;br&gt;一个线程加锁，将线程 id写入&lt;br&gt;对象头markword" style="edgeLabel;html=1;align=center;verticalAlign=middle;resizable=0;points=[];" vertex="1" connectable="0" parent="ETT2SsbHruUbjqDq5Ute-5">
          <mxGeometry x="-0.2167" relative="1" as="geometry">
            <mxPoint y="13" as="offset" />
          </mxGeometry>
        </mxCell>
        <mxCell id="ETT2SsbHruUbjqDq5Ute-11" style="edgeStyle=orthogonalEdgeStyle;rounded=0;orthogonalLoop=1;jettySize=auto;html=1;entryX=1;entryY=0.5;entryDx=0;entryDy=0;" edge="1" parent="1" source="ETT2SsbHruUbjqDq5Ute-1" target="ETT2SsbHruUbjqDq5Ute-3">
          <mxGeometry relative="1" as="geometry">
            <Array as="points">
              <mxPoint x="520" y="120" />
              <mxPoint x="520" y="480" />
            </Array>
          </mxGeometry>
        </mxCell>
        <mxCell id="ETT2SsbHruUbjqDq5Ute-12" value="偏向锁未启用" style="edgeLabel;html=1;align=center;verticalAlign=middle;resizable=0;points=[];" vertex="1" connectable="0" parent="ETT2SsbHruUbjqDq5Ute-11">
          <mxGeometry x="-0.1519" y="1" relative="1" as="geometry">
            <mxPoint y="-69" as="offset" />
          </mxGeometry>
        </mxCell>
        <mxCell id="ETT2SsbHruUbjqDq5Ute-1" value="无状态&lt;br&gt;（001）" style="rounded=0;whiteSpace=wrap;html=1;fillColor=#d5e8d4;strokeColor=#82b366;" vertex="1" parent="1">
          <mxGeometry x="310" y="90" width="120" height="60" as="geometry" />
        </mxCell>
        <mxCell id="ETT2SsbHruUbjqDq5Ute-6" style="edgeStyle=orthogonalEdgeStyle;rounded=0;orthogonalLoop=1;jettySize=auto;html=1;entryX=0.5;entryY=0;entryDx=0;entryDy=0;" edge="1" parent="1" source="ETT2SsbHruUbjqDq5Ute-2" target="ETT2SsbHruUbjqDq5Ute-3">
          <mxGeometry relative="1" as="geometry" />
        </mxCell>
        <mxCell id="ETT2SsbHruUbjqDq5Ute-9" value="多个线程 加锁&lt;br&gt;cas轻度竞争" style="edgeLabel;html=1;align=center;verticalAlign=middle;resizable=0;points=[];" vertex="1" connectable="0" parent="ETT2SsbHruUbjqDq5Ute-6">
          <mxGeometry relative="1" as="geometry">
            <mxPoint as="offset" />
          </mxGeometry>
        </mxCell>
        <mxCell id="ETT2SsbHruUbjqDq5Ute-13" style="edgeStyle=orthogonalEdgeStyle;rounded=0;orthogonalLoop=1;jettySize=auto;html=1;entryX=1;entryY=0.5;entryDx=0;entryDy=0;" edge="1" parent="1" source="ETT2SsbHruUbjqDq5Ute-2" target="ETT2SsbHruUbjqDq5Ute-4">
          <mxGeometry relative="1" as="geometry">
            <Array as="points">
              <mxPoint x="630" y="300" />
              <mxPoint x="630" y="650" />
            </Array>
          </mxGeometry>
        </mxCell>
        <mxCell id="ETT2SsbHruUbjqDq5Ute-14" value="调用wait方法&lt;br&gt;这是个重量级monitor锁&lt;br&gt;才有的实现" style="edgeLabel;html=1;align=center;verticalAlign=middle;resizable=0;points=[];" vertex="1" connectable="0" parent="ETT2SsbHruUbjqDq5Ute-13">
          <mxGeometry x="-0.0587" y="-2" relative="1" as="geometry">
            <mxPoint as="offset" />
          </mxGeometry>
        </mxCell>
        <mxCell id="ETT2SsbHruUbjqDq5Ute-2" value="偏向锁&lt;br&gt;（101）" style="rounded=0;whiteSpace=wrap;html=1;fillColor=#dae8fc;strokeColor=#6c8ebf;" vertex="1" parent="1">
          <mxGeometry x="310" y="270" width="120" height="60" as="geometry" />
        </mxCell>
        <mxCell id="ETT2SsbHruUbjqDq5Ute-7" style="edgeStyle=orthogonalEdgeStyle;rounded=0;orthogonalLoop=1;jettySize=auto;html=1;" edge="1" parent="1" source="ETT2SsbHruUbjqDq5Ute-3" target="ETT2SsbHruUbjqDq5Ute-4">
          <mxGeometry relative="1" as="geometry" />
        </mxCell>
        <mxCell id="ETT2SsbHruUbjqDq5Ute-10" value="cas自旋不成功（锁膨胀）&lt;br&gt;重度竞争&lt;br&gt;自适应自旋" style="edgeLabel;html=1;align=center;verticalAlign=middle;resizable=0;points=[];" vertex="1" connectable="0" parent="ETT2SsbHruUbjqDq5Ute-7">
          <mxGeometry x="0.0727" y="-2" relative="1" as="geometry">
            <mxPoint as="offset" />
          </mxGeometry>
        </mxCell>
        <mxCell id="ETT2SsbHruUbjqDq5Ute-3" value="轻量锁&lt;br&gt;（00）" style="rounded=0;whiteSpace=wrap;html=1;fillColor=#1ba1e2;fontColor=#ffffff;strokeColor=#006EAF;" vertex="1" parent="1">
          <mxGeometry x="310" y="450" width="120" height="60" as="geometry" />
        </mxCell>
        <mxCell id="ETT2SsbHruUbjqDq5Ute-4" value="重量锁&lt;br&gt;（10）" style="rounded=0;whiteSpace=wrap;html=1;fillColor=#fa6800;fontColor=#000000;strokeColor=#C73500;" vertex="1" parent="1">
          <mxGeometry x="310" y="620" width="120" height="60" as="geometry" />
        </mxCell>
      </root>
    </mxGraphModel>
  </diagram>
</mxfile>
